<svg width="145" height="40" viewBox="0 0 145 40" fill="none" xmlns="http://www.w3.org/2000/svg">
<path d="M43.2266 9.36361L44.4498 11.2335C44.4747 11.2714 44.4889 11.3153 44.4908 11.3606C44.4928 11.4059 44.4825 11.4508 44.461 11.4908C44.4395 11.5307 44.4077 11.564 44.3688 11.5874C44.3299 11.6107 44.2854 11.623 44.2401 11.6231H39.7315C39.6648 11.6231 39.6008 11.6497 39.5536 11.6969C39.5064 11.744 39.4799 11.8081 39.4799 11.8748V39.0347C39.4805 39.1175 39.46 39.1992 39.4205 39.272C39.3809 39.3447 39.3235 39.4063 39.2536 39.4508C39.1838 39.4953 39.1037 39.5214 39.0211 39.5266C38.9384 39.5317 38.8557 39.5158 38.7809 39.4803L33.5838 37.1334C33.5007 37.0906 33.4304 37.0268 33.3798 36.9483C33.3291 36.8698 33.3001 36.7793 33.2954 36.686V31.6637C33.2948 31.5755 33.2697 31.4893 33.223 31.4145C33.1763 31.3397 33.1099 31.2793 33.0309 31.2401C32.952 31.2008 32.8637 31.1841 32.7759 31.192C32.6881 31.1998 32.6042 31.2318 32.5335 31.2845C30.6241 32.6825 28.9191 33.3815 27.4185 33.3815C26.8586 33.3757 26.3031 33.2819 25.7724 33.1036C25.1341 32.8846 24.5304 32.5756 23.9794 32.1862C23.3503 31.751 22.7998 31.3613 22.3333 31.0136C21.7098 30.5219 21.1202 29.9889 20.5683 29.4181L18.9728 27.8244C18.6233 27.4749 18.0746 26.8947 17.3284 26.0769C16.5822 25.259 16.1051 24.7557 15.9094 24.5565C15.8045 24.4517 15.7265 23.1346 15.6752 20.6054C15.6333 18.3668 15.6088 11.5672 15.6088 7.42038C15.6088 4.82182 11.1387 2.30889 8.53662 2.26695C5.89787 2.22851 6.18446 8.22598 6.18446 10.856V38.991C6.18488 39.0738 6.16436 39.1554 6.12478 39.2282C6.08521 39.3009 6.02787 39.3625 5.95812 39.4071C5.88836 39.4518 5.80844 39.478 5.7258 39.4835C5.64316 39.489 5.56048 39.4734 5.48545 39.4384L0.28834 37.0932C0.205759 37.0503 0.135755 36.9867 0.0852026 36.9085C0.0346501 36.8304 0.00528743 36.7405 0 36.6476V11.1111C0 5.18181 4.65014 0.161195 10.5777 0.00391869C12.0291 -0.0350621 13.4735 0.217109 14.8258 0.745546C16.178 1.27398 17.4108 2.06798 18.4511 3.08066C19.4915 4.09334 20.3185 5.30419 20.8832 6.64172C21.4479 7.97925 21.7389 9.41636 21.7391 10.8682C21.7391 10.9067 21.7391 10.9416 21.7391 10.9818L21.8282 25.425C21.8295 25.8609 21.9592 26.2867 22.201 26.6494C22.4427 27.0121 22.7859 27.2955 23.1878 27.4644C24.4309 27.9712 25.9261 27.8692 27.6737 27.1586L27.7471 27.1271C31.1407 25.7291 33.3007 22.3599 33.3007 18.6919V11.8765C33.3009 11.8434 33.2945 11.8106 33.282 11.78C33.2694 11.7493 33.2509 11.7215 33.2275 11.6981C33.2041 11.6747 33.1762 11.6561 33.1456 11.6436C33.115 11.631 33.0821 11.6247 33.049 11.6249H28.5841C28.5476 11.6246 28.5115 11.6164 28.4784 11.6011C28.4452 11.5857 28.4157 11.5634 28.3919 11.5358L26.8191 9.66419C26.7879 9.62774 26.7679 9.58307 26.7614 9.53553C26.7549 9.48799 26.7622 9.43958 26.7824 9.39608C26.8027 9.35259 26.8351 9.31585 26.8757 9.29026C26.9163 9.26467 26.9634 9.25131 27.0114 9.25177H43.0256C43.0656 9.25281 43.1048 9.26353 43.1398 9.283C43.1748 9.30248 43.2046 9.33014 43.2266 9.36361Z" fill="#00043B"/>
<path d="M29.7307 21.037C29.2589 21.6299 28.5734 22.0143 27.8214 22.1076C27.0694 22.2008 26.3108 21.9956 25.7084 21.5359C25.106 21.0762 24.7077 20.3987 24.5992 19.6487C24.4907 18.8988 24.6804 18.1361 25.1278 17.5245L27.3419 14.7285C27.3529 14.7162 27.3663 14.7063 27.3814 14.6996C27.3965 14.6928 27.4128 14.6893 27.4293 14.6893C27.4458 14.6893 27.4621 14.6928 27.4771 14.6996C27.4922 14.7063 27.5057 14.7162 27.5166 14.7285L29.7325 17.5245C30.1158 18.0299 30.3231 18.6468 30.3228 19.2811C30.3225 19.9153 30.1145 20.532 29.7307 21.037Z" fill="#00043B"/>
<path d="M45.8037 9.4718H46.8959V9.59588H46.4241V11.0201H46.279V9.59588H45.8037V9.4718Z" fill="#00043B"/>
<path d="M47.1309 11.0201V9.4718H47.3475L47.8404 10.8366L48.3244 9.4718H48.5411V11.0201H48.3961V9.63956L47.905 11.0201H47.7705L47.2794 9.63956V11.0201H47.1309Z" fill="#00043B"/>
<path d="M47.2252 12.2279C46.8125 12.2279 46.4091 12.1055 46.066 11.8762C45.7229 11.647 45.4554 11.3211 45.2975 10.9398C45.1396 10.5586 45.0983 10.139 45.1788 9.73428C45.2593 9.32953 45.458 8.95775 45.7498 8.66594C46.0416 8.37413 46.4134 8.17541 46.8181 8.0949C47.2229 8.01439 47.6424 8.05571 48.0237 8.21364C48.405 8.37156 48.7308 8.639 48.9601 8.98213C49.1894 9.32526 49.3117 9.72867 49.3117 10.1413C49.309 10.6939 49.0883 11.223 48.6976 11.6137C48.3069 12.0044 47.7777 12.2251 47.2252 12.2279ZM47.2252 8.2383C46.8488 8.2383 46.4809 8.34991 46.1679 8.55902C45.855 8.76813 45.6111 9.06534 45.467 9.41308C45.323 9.76082 45.2853 10.1435 45.3587 10.5126C45.4322 10.8818 45.6134 11.2209 45.8795 11.487C46.1457 11.7531 46.4848 11.9344 46.8539 12.0078C47.2231 12.0813 47.6057 12.0436 47.9535 11.8995C48.3012 11.7555 48.5984 11.5116 48.8075 11.1986C49.0166 10.8857 49.1282 10.5177 49.1282 10.1413C49.1278 9.63677 48.9271 9.15299 48.5703 8.7962C48.2136 8.43941 47.7298 8.23876 47.2252 8.2383Z" fill="#00043B"/>
<path d="M57.1293 14.6709C57.1243 14.4263 57.1725 14.1835 57.2705 13.9593C57.3686 13.7351 57.5142 13.5349 57.6972 13.3725C58.0888 13.0186 58.6026 12.8307 59.1302 12.8483H67.4326C68.7512 12.8223 70.0567 13.1142 71.2387 13.6993C72.313 14.2379 73.206 15.0793 73.8075 16.1196C74.4308 17.2254 74.7453 18.4784 74.718 19.7475C74.7478 21.0248 74.4391 22.2873 73.8233 23.4068C73.2329 24.4449 72.3498 25.2861 71.2841 25.8253C70.189 26.3939 68.9075 26.6775 67.4396 26.6764H61.1311V31.0661C61.1311 32.0226 60.788 32.7542 60.1018 33.261C59.4156 33.7678 58.4253 34.0218 57.131 34.0229L57.1293 14.6709ZM67.4396 23.211C68.4951 23.211 69.3106 22.9029 69.8861 22.2866C70.4616 21.6703 70.7529 20.814 70.7599 19.7178C70.7599 18.6436 70.4686 17.8077 69.8861 17.2101C69.3036 16.6124 68.4928 16.3136 67.4536 16.3136H61.1311V23.211H67.4396Z" fill="#00043B"/>
<path d="M77.2714 16.5074C77.0421 16.2982 76.8609 16.0417 76.7402 15.7557C76.6195 15.4697 76.5623 15.161 76.5724 14.8507C76.5643 14.5451 76.6226 14.2414 76.7433 13.9605C76.864 13.6796 77.0442 13.4283 77.2714 13.2238C77.7704 12.8082 78.3993 12.5806 79.0487 12.5806C79.6981 12.5806 80.3269 12.8082 80.8259 13.2238C81.0532 13.4283 81.2334 13.6796 81.3541 13.9605C81.4747 14.2414 81.533 14.5451 81.5249 14.8507C81.535 15.161 81.4778 15.4697 81.3571 15.7557C81.2364 16.0417 81.0552 16.2982 80.8259 16.5074C80.3263 16.9217 79.6977 17.1485 79.0487 17.1485C78.3996 17.1485 77.771 16.9217 77.2714 16.5074Z" fill="#00043B"/>
<path d="M77.168 20.8238C77.168 20.0083 77.4761 19.4258 78.0924 19.0763C78.7087 18.7268 79.6448 18.552 80.9007 18.552V31.751C80.9007 32.5479 80.5919 33.1251 79.9745 33.4828C79.357 33.8404 78.4215 34.0199 77.168 34.021V20.8238Z" fill="#00043B"/>
<path d="M94.6366 19.957C94.8158 19.497 95.1631 19.1222 95.6082 18.9085C96.0959 18.664 96.6355 18.5411 97.181 18.5503C97.4666 18.557 97.7512 18.5868 98.032 18.6394C98.2944 18.6744 98.5507 18.7449 98.7939 18.8491L92.1045 35.101C91.4055 36.774 90.6441 38.0083 89.8205 38.804C88.9968 39.5997 87.9564 39.9975 86.6994 39.9975C86.3519 40.0136 86.0054 39.9492 85.6869 39.8095C85.3683 39.6698 85.0863 39.4584 84.8628 39.1919C84.4154 38.6537 84.1911 37.8772 84.19 36.8625C84.6832 36.9519 85.1829 37.0015 85.6841 37.011C86.4414 37.011 87.0437 36.8124 87.491 36.4151C87.9384 36.0179 88.4312 35.2216 88.9694 34.0263L89.4465 32.9201L83.6797 18.8561C83.911 18.7475 84.1582 18.6767 84.4119 18.6464C84.6927 18.5936 84.9773 18.5638 85.2629 18.5573C85.8125 18.5508 86.3554 18.6785 86.8444 18.9295C87.2878 19.1414 87.6383 19.5081 87.83 19.9605L91.0263 28.3486" fill="#00043B"/>
<path d="M108.853 24.8797V24.137C108.867 23.7679 108.795 23.4005 108.644 23.0637C108.492 22.7268 108.264 22.4297 107.979 22.1955C107.396 21.7178 106.59 21.479 105.56 21.479C103.708 21.479 102.344 22.1559 101.469 23.5096C101.05 23.3832 100.669 23.1523 100.363 22.8386C100.226 22.7096 100.117 22.5549 100.04 22.3834C99.963 22.2119 99.9208 22.0269 99.9157 21.839C99.9157 21.2413 100.185 20.6932 100.723 20.1946C101.355 19.6447 102.098 19.2376 102.902 19.001C103.868 18.6949 104.876 18.5439 105.889 18.5537C107.999 18.5537 109.63 19.0465 110.782 20.0321C111.934 21.0177 112.511 22.3574 112.514 24.0513V31.5167C112.514 32.394 112.235 33.0313 111.678 33.4285C111.121 33.8258 110.248 34.025 109.057 34.0262V32.8029C109.301 32.5686 109.53 32.3194 109.744 32.0567L109.632 31.9064C109.032 32.5561 108.317 33.0893 107.523 33.4792C106.777 33.838 105.826 34.0174 104.671 34.0174C103.706 34.0289 102.751 33.8248 101.875 33.4198C101.056 33.0435 100.354 32.4515 99.8458 31.7072C99.3256 30.9151 99.0603 29.9826 99.0856 29.0353C99.0636 28.0719 99.3454 27.126 99.8912 26.3319C100.446 25.5513 101.206 24.9402 102.088 24.5669C103.054 24.1509 104.097 23.9425 105.15 23.9552C105.991 23.9433 106.826 24.0916 107.612 24.3921M108.045 30.7076C108.325 30.5233 108.553 30.2697 108.706 29.9715C108.859 29.6732 108.932 29.3405 108.919 29.0056C108.929 28.6712 108.854 28.3397 108.701 28.0421C108.548 27.7445 108.323 27.4904 108.045 27.3035C107.456 26.8858 106.666 26.6761 105.67 26.6761C104.755 26.6761 104.033 26.88 103.505 27.2878C103.245 27.4894 103.037 27.7508 102.899 28.0498C102.761 28.3488 102.698 28.6767 102.713 29.0056C102.713 29.7628 102.973 30.3348 103.491 30.7216C104.015 31.1113 104.725 31.3035 105.641 31.3035C106.67 31.3035 107.472 31.1049 108.045 30.7076Z" fill="#00043B"/>
<path d="M124.56 24.8797V24.137C124.574 23.7678 124.503 23.4003 124.351 23.0634C124.2 22.7265 123.972 22.4294 123.686 22.1955C123.103 21.7178 122.297 21.479 121.267 21.479C119.416 21.479 118.052 22.1559 117.176 23.5096C116.757 23.3831 116.377 23.1522 116.072 22.8386C115.935 22.7098 115.825 22.5552 115.748 22.3836C115.671 22.212 115.629 22.0269 115.625 21.839C115.625 21.2413 115.893 20.6932 116.43 20.1946C117.062 19.6447 117.806 19.2376 118.609 19.001C119.575 18.6949 120.583 18.5439 121.596 18.5537C123.707 18.5537 125.338 19.0465 126.489 20.0321C127.64 21.0177 128.217 22.3574 128.221 24.0513V31.5167C128.221 32.394 127.942 33.0313 127.384 33.4285C126.826 33.8258 125.952 34.025 124.762 34.0262V32.8029C125.005 32.5677 125.235 32.3185 125.449 32.0567L125.329 31.9064C124.732 32.5554 124.02 33.0885 123.23 33.4792C122.484 33.838 121.534 34.0174 120.38 34.0174C119.415 34.0294 118.459 33.8252 117.584 33.4198C116.763 33.0433 116.06 32.4492 115.553 31.702C115.048 30.8948 114.783 29.9601 114.791 29.0079C114.799 28.0557 115.078 27.1255 115.597 26.3266C116.153 25.5481 116.914 24.9389 117.795 24.5669C118.762 24.1512 119.805 23.9428 120.857 23.9552C121.698 23.9423 122.534 24.0894 123.321 24.3886M123.754 30.7041C124.034 30.5197 124.261 30.266 124.414 29.9678C124.567 29.6697 124.641 29.337 124.628 29.0021C124.638 28.6677 124.563 28.3362 124.41 28.0386C124.257 27.741 124.031 27.4869 123.754 27.3C123.171 26.8817 122.38 26.6726 121.379 26.6726C120.463 26.6726 119.742 26.8765 119.216 27.2843C118.955 27.4859 118.748 27.7473 118.61 28.0463C118.472 28.3453 118.408 28.6732 118.424 29.0021C118.424 29.7593 118.683 30.3313 119.2 30.7181C119.724 31.1078 120.434 31.3 121.349 31.3C122.376 31.3024 123.177 31.1049 123.754 30.7076V30.7041Z" fill="#00043B"/>
<path d="M144.806 31.1254C144.806 32.0574 144.515 32.7739 143.932 33.2748C143.35 33.7758 142.459 34.0251 141.26 34.0228V32.2298C141.526 31.9217 141.766 31.592 141.977 31.2442L141.802 31.1254C140.526 33.057 138.814 34.0228 136.666 34.0228C135.709 34.0383 134.765 33.797 133.933 33.3238C133.13 32.8581 132.469 32.182 132.021 31.3683C131.546 30.499 131.305 29.5209 131.322 28.5303V20.8238C131.322 20.0083 131.626 19.4258 132.233 19.0763C132.84 18.7268 133.772 18.552 135.029 18.552V28.256C135.029 29.033 135.267 29.6505 135.745 30.1083C136.223 30.5662 136.91 30.7951 137.805 30.7951C138.799 30.7951 139.601 30.4817 140.21 29.8549C140.51 29.5444 140.746 29.177 140.902 28.7743C141.058 28.3715 141.133 27.9416 141.12 27.5098V20.8238C141.12 20.0083 141.419 19.4258 142.015 19.0763C142.612 18.7268 143.548 18.552 144.823 18.552L144.806 31.1254Z" fill="#00043B"/>
</svg>
